Coordinates
version=1
nRows=10
nColumns=23
inDegrees=yes

Units are S.I. units (second, meters, Newtons, ...)
If the header above contains a line with 'inDegrees', this indicates whether rotational values are in degrees (yes) or radians (no).

endheader
time	pelvis_tilt	pelvis_list	pelvis_rotation	pelvis_tx	pelvis_ty	pelvis_tz	hip_flexion_r	hip_adduction_r	hip_rotation_r	knee_angle_r	knee_angle_r_beta	ankle_angle_r	subtalar_angle_r	mtp_angle_r	hip_flexion_l	hip_adduction_l	hip_rotation_l	knee_angle_l	knee_angle_l_beta	ankle_angle_l	subtalar_angle_l	mtp_angle_l
      0.00000000	     -7.89418272	      0.23078073	      0.62803335	      2.15274676	      0.95050910	      1.01390967	     44.38094486	     -2.23652582	     -4.13445948	     59.16218925	      1.03257500	      1.28775059	    -20.29356597	      0.00000000	    -15.37779866	      3.20513543	     -2.20019932	     17.65885150	      0.30820510	    -10.07607743	    -10.17317916	      0.00000000
      0.00666667	     -8.80583983	      0.45226268	     -0.21607698	      2.15387662	      0.95163725	      1.01550576	     45.51150562	     -2.00317976	     -4.62220368	     55.15430848	      0.96262428	      2.46690686	    -18.45002253	      0.00000000	    -14.83621502	      3.29962970	     -4.00827361	     19.12540974	      0.33380137	    -13.58559901	    -11.05768603	      0.00000000
      0.01333333	     -9.68266418	      0.58799532	     -0.94846915	      2.15511117	      0.95254548	      1.01702251	     46.30930050	     -1.65156343	     -5.25857268	     50.84682274	      0.88744447	      3.75106821	    -16.27311841	      0.00000000	    -14.34015803	      3.26145929	     -5.61045686	     20.64699649	      0.36035807	    -16.99592945	    -11.93012355	      0.00000000
      0.02000000	     -9.78731751	      0.14659604	     -1.18375171	      2.15690519	      0.95450132	      1.01780756	     45.77754539	     -1.30622371	     -7.06604259	     46.22593013	      0.80679468	      5.73421341	    -12.25978333	      0.00000000	    -14.66685540	      2.53667899	     -6.64212751	     22.26707803	      0.38863383	    -19.91640980	    -13.21413415	      0.00000000
      0.02666667	    -10.00076065	     -0.30064674	     -1.48951845	      2.15843278	      0.95581658	      1.01907969	     45.21127928	     -0.61314181	     -8.49734637	     41.56118061	      0.72537944	      7.27862015	     -8.78952603	      0.00000000	    -14.62286943	      1.71092096	     -7.85876823	     24.44308410	      0.42661230	    -22.15442553	    -14.27229240	      0.00000000
      0.03333333	    -10.09516884	     -0.81335396	     -1.72438260	      2.15981575	      0.95672168	      1.02045252	     44.41204676	      0.24258018	     -9.79239729	     37.05360933	      0.64670748	      8.73294410	     -5.22196250	      0.00000000	    -14.47444169	      0.76964913	     -8.83415526	     27.13139429	      0.47353216	    -23.64223502	    -15.37544758	      0.00000000
      0.04000000	     -9.85717064	     -1.49290077	     -1.91438869	      2.16105167	      0.95752045	      1.02182806	     43.17952339	      1.28220022	    -11.10992124	     32.80889313	      0.57262321	     10.07054840	     -1.41541898	      0.00000000	    -14.47310925	     -0.38655417	     -9.68142992	     30.26754175	      0.52826826	    -24.51422764	    -16.49075196	      0.00000000
      0.04666667	     -9.66632805	     -2.06091251	     -2.13929782	      2.16185913	      0.95761241	      1.02334676	     42.07577121	      2.38541420	    -11.92260389	     29.03810691	      0.50681057	     11.07526485	      1.79623597	      0.00000000	    -14.14844833	     -1.42464574	    -10.27798342	     33.89280775	      0.59154109	    -24.83607028	    -17.73234376	      0.00000000
      0.05333333	     -9.40327690	     -2.64941405	     -2.42158389	      2.16234874	      0.95725723	      1.02487897	     40.95342471	      3.58836419	    -12.37891112	     25.78573044	      0.45004590	     11.81352928	      4.52202008	      0.00000000	    -13.68674819	     -2.42907320	    -10.63144926	     37.87546894	      0.66105164	    -24.79447364	    -18.97990051	      0.00000000
      0.06000000	     -9.10919997	     -3.17687418	     -2.76739757	      2.16240848	      0.95637980	      1.02634830	     39.94391541	      4.75341914	    -12.53345384	     23.23601663	      0.40554500	     12.20541249	      6.53090084	      0.00000000	    -13.03214846	     -3.30363437	    -10.79303841	     42.16551651	      0.73592709	    -24.56014945	    -20.24352095	      0.00000000
